<svg width="204" height="45" viewBox="0 0 204 45" fill="none" xmlns="http://www.w3.org/2000/svg">
<path d="M0.5 5C0.5 2.23858 2.73858 0 5.5 0H198.5C201.261 0 203.5 2.23858 203.5 5V40C203.5 42.7614 201.261 45 198.5 45H5.5C2.73858 45 0.5 42.7614 0.5 40V5Z" fill="#FBE843"/>
<path d="M26.773 16.61C27.9063 16.61 28.881 16.8423 29.697 17.307C30.5243 17.7603 31.159 18.4177 31.601 19.279C32.043 20.1403 32.264 21.1773 32.264 22.39C32.264 23.6027 32.043 24.6397 31.601 25.501C31.159 26.3623 30.5243 27.0253 29.697 27.49C28.881 27.9433 27.9063 28.17 26.773 28.17C25.6397 28.17 24.6593 27.9433 23.832 27.49C23.0047 27.0253 22.37 26.3623 21.928 25.501C21.486 24.6397 21.265 23.6027 21.265 22.39C21.265 21.1773 21.486 20.1403 21.928 19.279C22.37 18.4177 23.0047 17.7603 23.832 17.307C24.6593 16.8423 25.6397 16.61 26.773 16.61ZM26.773 18.905C26.229 18.905 25.77 19.0353 25.396 19.296C25.022 19.5567 24.7387 19.9477 24.546 20.469C24.3533 20.979 24.257 21.6193 24.257 22.39C24.257 23.1493 24.3533 23.7897 24.546 24.311C24.7387 24.8323 25.022 25.2233 25.396 25.484C25.77 25.7447 26.229 25.875 26.773 25.875C27.317 25.875 27.7703 25.7447 28.133 25.484C28.507 25.2233 28.7903 24.8323 28.983 24.311C29.1757 23.7897 29.272 23.1493 29.272 22.39C29.272 21.6193 29.1757 20.979 28.983 20.469C28.7903 19.9477 28.507 19.5567 28.133 19.296C27.7703 19.0353 27.317 18.905 26.773 18.905ZM45.2402 24.787C45.0248 25.569 44.6792 26.215 44.2032 26.725C43.7272 27.2237 43.1605 27.592 42.5032 27.83C41.8458 28.0567 41.1205 28.17 40.3272 28.17C39.1938 28.17 38.2135 27.9433 37.3862 27.49C36.5588 27.0253 35.9242 26.3623 35.4822 25.501C35.0402 24.6397 34.8192 23.6027 34.8192 22.39C34.8192 21.1773 35.0402 20.1403 35.4822 19.279C35.9242 18.4177 36.5588 17.7603 37.3862 17.307C38.2135 16.8423 39.1882 16.61 40.3102 16.61C41.0922 16.61 41.8118 16.7233 42.4692 16.95C43.1265 17.1653 43.6818 17.4997 44.1352 17.953C44.5885 18.4063 44.9115 18.99 45.1042 19.704L42.5372 20.741C42.3785 20.0383 42.1178 19.5567 41.7552 19.296C41.4038 19.0353 40.9562 18.905 40.4122 18.905C39.8795 18.905 39.4148 19.0353 39.0182 19.296C38.6328 19.5567 38.3325 19.9477 38.1172 20.469C37.9132 20.979 37.8112 21.6193 37.8112 22.39C37.8112 23.1493 37.9075 23.7897 38.1002 24.311C38.2928 24.8323 38.5818 25.2233 38.9672 25.484C39.3638 25.7447 39.8512 25.875 40.4292 25.875C40.9732 25.875 41.4322 25.7277 41.8062 25.433C42.1915 25.127 42.4522 24.6623 42.5882 24.039L45.2402 24.787ZM57.3215 16.78V19.041H53.6665V28H50.7425V19.041H47.0705V16.78H57.3215ZM64.5801 16.61C65.7134 16.61 66.6881 16.8423 67.5041 17.307C68.3314 17.7603 68.9661 18.4177 69.4081 19.279C69.8501 20.1403 70.0711 21.1773 70.0711 22.39C70.0711 23.6027 69.8501 24.6397 69.4081 25.501C68.9661 26.3623 68.3314 27.0253 67.5041 27.49C66.6881 27.9433 65.7134 28.17 64.5801 28.17C63.4467 28.17 62.4664 27.9433 61.6391 27.49C60.8117 27.0253 60.1771 26.3623 59.7351 25.501C59.2931 24.6397 59.0721 23.6027 59.0721 22.39C59.0721 21.1773 59.2931 20.1403 59.7351 19.279C60.1771 18.4177 60.8117 17.7603 61.6391 17.307C62.4664 16.8423 63.4467 16.61 64.5801 16.61ZM64.5801 18.905C64.0361 18.905 63.5771 19.0353 63.2031 19.296C62.8291 19.5567 62.5457 19.9477 62.3531 20.469C62.1604 20.979 62.0641 21.6193 62.0641 22.39C62.0641 23.1493 62.1604 23.7897 62.3531 24.311C62.5457 24.8323 62.8291 25.2233 63.2031 25.484C63.5771 25.7447 64.0361 25.875 64.5801 25.875C65.1241 25.875 65.5774 25.7447 65.9401 25.484C66.3141 25.2233 66.5974 24.8323 66.7901 24.311C66.9827 23.7897 67.0791 23.1493 67.0791 22.39C67.0791 21.6193 66.9827 20.979 66.7901 20.469C66.5974 19.9477 66.3141 19.5567 65.9401 19.296C65.5774 19.0353 65.1241 18.905 64.5801 18.905ZM73.1023 28V16.78H78.5593C79.9419 16.7913 80.9619 17.0577 81.6193 17.579C82.2766 18.089 82.6053 18.8313 82.6053 19.806C82.6053 20.4407 82.4183 20.9903 82.0443 21.455C81.6703 21.9083 81.0979 22.1973 80.3273 22.322V22.339C81.1886 22.4523 81.8289 22.7527 82.2483 23.24C82.6789 23.716 82.8943 24.294 82.8943 24.974C82.8943 25.9373 82.5543 26.6853 81.8743 27.218C81.1943 27.7393 80.1743 28 78.8143 28H73.1023ZM75.9243 25.943H78.3213C78.8539 25.943 79.2506 25.8353 79.5113 25.62C79.7719 25.4047 79.9023 25.093 79.9023 24.685C79.9023 24.2883 79.7719 23.988 79.5113 23.784C79.2506 23.5687 78.8539 23.461 78.3213 23.461H75.9243V25.943ZM75.9243 21.37H78.0493C79.0919 21.37 79.6133 20.962 79.6133 20.146C79.6133 19.33 79.0919 18.922 78.0493 18.922H75.9243V21.37ZM85.7433 28V16.78H94.4813V19.041H88.6673V21.319H93.2913V23.444H88.6673V25.739H94.7023V28H85.7433ZM102.843 16.78C104.18 16.78 105.217 17.0973 105.954 17.732C106.702 18.3553 107.076 19.1883 107.076 20.231C107.076 21.3757 106.708 22.2483 105.971 22.849C105.234 23.4497 104.197 23.75 102.86 23.75L102.588 23.903H100.361V28H97.488V16.78H102.843ZM102.435 21.829C103.002 21.829 103.427 21.7157 103.71 21.489C103.993 21.2623 104.135 20.8997 104.135 20.401C104.135 19.9137 103.993 19.5567 103.71 19.33C103.427 19.1033 103.002 18.99 102.435 18.99H100.361V21.829H102.435ZM104.152 22.441L107.739 28H104.509L101.636 23.087L104.152 22.441ZM119.734 28.17C118.759 28.17 117.909 27.983 117.184 27.609C116.47 27.2237 115.869 26.6003 115.382 25.739L117.949 24.464C118.074 24.9173 118.272 25.28 118.544 25.552C118.827 25.824 119.247 25.96 119.802 25.96C120.153 25.96 120.454 25.8977 120.703 25.773C120.952 25.6483 121.145 25.467 121.281 25.229C121.428 24.9797 121.502 24.6793 121.502 24.328C121.502 23.988 121.434 23.7047 121.298 23.478C121.173 23.2513 120.986 23.0813 120.737 22.968C120.488 22.8433 120.176 22.781 119.802 22.781C119.53 22.781 119.286 22.8093 119.071 22.866C118.856 22.9113 118.657 22.985 118.476 23.087C118.306 23.1777 118.147 23.2967 118 23.444L115.79 23.036L116.504 16.78H123.576V19.041H118.629L118.34 21.285L118.289 21.557H118.306C118.533 21.2963 118.85 21.098 119.258 20.962C119.666 20.826 120.119 20.758 120.618 20.758C121.355 20.758 121.984 20.9053 122.505 21.2C123.026 21.4947 123.429 21.897 123.712 22.407C123.995 22.917 124.137 23.5007 124.137 24.158C124.137 24.8493 124.018 25.45 123.78 25.96C123.553 26.4587 123.23 26.8723 122.811 27.201C122.403 27.5297 121.933 27.7733 121.4 27.932C120.879 28.0907 120.323 28.17 119.734 28.17ZM128.217 25.076C128.636 25.076 128.982 25.1723 129.254 25.365C129.526 25.5577 129.724 25.8127 129.849 26.13C129.985 26.436 130.053 26.7817 130.053 27.167C130.053 27.677 129.94 28.1643 129.713 28.629C129.498 29.105 129.209 29.5187 128.846 29.87C128.495 30.2327 128.109 30.5047 127.69 30.686L126.517 29.819C126.834 29.6943 127.123 29.5357 127.384 29.343C127.656 29.1503 127.888 28.9407 128.081 28.714C128.285 28.4873 128.438 28.255 128.54 28.017L128.455 27.966C128.398 28.0113 128.325 28.0453 128.234 28.068C128.143 28.0907 128.024 28.102 127.877 28.102C127.673 28.102 127.463 28.051 127.248 27.949C127.044 27.847 126.868 27.694 126.721 27.49C126.585 27.286 126.517 27.0253 126.517 26.708C126.517 26.3453 126.596 26.045 126.755 25.807C126.914 25.569 127.123 25.3877 127.384 25.263C127.645 25.1383 127.922 25.076 128.217 25.076ZM138.658 28V26.13C139.621 25.5293 140.443 24.9683 141.123 24.447C141.803 23.9257 142.353 23.4327 142.772 22.968C143.203 22.5033 143.52 22.0613 143.724 21.642C143.928 21.2227 144.03 20.8147 144.03 20.418C144.03 19.9873 143.9 19.6303 143.639 19.347C143.39 19.0523 143.016 18.905 142.517 18.905C141.984 18.905 141.571 19.1033 141.276 19.5C140.981 19.8853 140.823 20.452 140.8 21.2L138.301 20.435C138.324 19.5963 138.522 18.8937 138.896 18.327C139.281 17.7603 139.803 17.3353 140.46 17.052C141.117 16.7573 141.865 16.61 142.704 16.61C143.441 16.61 144.075 16.7177 144.608 16.933C145.152 17.137 145.594 17.4147 145.934 17.766C146.274 18.106 146.523 18.4913 146.682 18.922C146.852 19.3413 146.937 19.772 146.937 20.214C146.937 20.9393 146.75 21.6193 146.376 22.254C146.002 22.8773 145.458 23.4837 144.744 24.073C144.041 24.651 143.186 25.2347 142.177 25.824V25.841C142.37 25.8297 142.596 25.8183 142.857 25.807C143.118 25.7957 143.39 25.79 143.673 25.79C143.956 25.7787 144.211 25.773 144.438 25.773H147.073V28H138.658ZM154.259 28.17C152.729 28.17 151.567 27.6827 150.774 26.708C149.992 25.7333 149.601 24.294 149.601 22.39C149.601 20.486 149.992 19.0467 150.774 18.072C151.567 17.0973 152.729 16.61 154.259 16.61C155.789 16.61 156.945 17.0973 157.727 18.072C158.52 19.0467 158.917 20.486 158.917 22.39C158.917 24.294 158.52 25.7333 157.727 26.708C156.945 27.6827 155.789 28.17 154.259 28.17ZM154.259 25.892C154.678 25.892 155.018 25.7787 155.279 25.552C155.54 25.314 155.727 24.94 155.84 24.43C155.965 23.9087 156.027 23.2287 156.027 22.39C156.027 21.5513 155.965 20.877 155.84 20.367C155.727 19.8457 155.54 19.4717 155.279 19.245C155.018 19.007 154.678 18.888 154.259 18.888C153.851 18.888 153.511 19.007 153.239 19.245C152.978 19.4717 152.786 19.8457 152.661 20.367C152.548 20.877 152.491 21.5513 152.491 22.39C152.491 23.2287 152.548 23.9087 152.661 24.43C152.786 24.94 152.978 25.314 153.239 25.552C153.511 25.7787 153.851 25.892 154.259 25.892ZM161.765 28V26.13C162.729 25.5293 163.55 24.9683 164.23 24.447C164.91 23.9257 165.46 23.4327 165.879 22.968C166.31 22.5033 166.627 22.0613 166.831 21.642C167.035 21.2227 167.137 20.8147 167.137 20.418C167.137 19.9873 167.007 19.6303 166.746 19.347C166.497 19.0523 166.123 18.905 165.624 18.905C165.092 18.905 164.678 19.1033 164.383 19.5C164.089 19.8853 163.93 20.452 163.907 21.2L161.408 20.435C161.431 19.5963 161.629 18.8937 162.003 18.327C162.389 17.7603 162.91 17.3353 163.567 17.052C164.225 16.7573 164.973 16.61 165.811 16.61C166.548 16.61 167.183 16.7177 167.715 16.933C168.259 17.137 168.701 17.4147 169.041 17.766C169.381 18.106 169.631 18.4913 169.789 18.922C169.959 19.3413 170.044 19.772 170.044 20.214C170.044 20.9393 169.857 21.6193 169.483 22.254C169.109 22.8773 168.565 23.4837 167.851 24.073C167.149 24.651 166.293 25.2347 165.284 25.824V25.841C165.477 25.8297 165.704 25.8183 165.964 25.807C166.225 25.7957 166.497 25.79 166.78 25.79C167.064 25.7787 167.319 25.773 167.545 25.773H170.18V28H161.765ZM177.881 28V25.535H172.407V23.699C172.509 23.5177 172.64 23.2967 172.798 23.036C172.968 22.7753 173.167 22.475 173.393 22.135L177.048 16.78H180.465V23.529H182.182V25.535H180.465V28H177.881ZM174.753 23.529H177.915V20.129C177.915 19.9023 177.921 19.67 177.932 19.432C177.944 19.1827 177.955 18.9333 177.966 18.684H177.932C177.819 18.922 177.683 19.1713 177.524 19.432C177.377 19.6813 177.235 19.908 177.099 20.112L175.11 23.019C175.054 23.1097 174.997 23.1947 174.94 23.274C174.884 23.3533 174.821 23.4383 174.753 23.529Z" fill="black"/>
<rect x="86.4448" y="34.25" width="31.11" height="0.5" fill="url(#paint0_linear_62001_5396)" stroke="#F7F7F7" stroke-width="0.5"/>
<defs>
<linearGradient id="paint0_linear_62001_5396" x1="86.1948" y1="34.5" x2="117.805" y2="34.5" gradientUnits="userSpaceOnUse">
<stop stop-color="#F7D930" stop-opacity="0"/>
<stop offset="0.5" stop-color="#FFE553"/>
<stop offset="1" stop-color="#FFDE21" stop-opacity="0"/>
</linearGradient>
</defs>
</svg>
