<svg width="16" height="17" viewBox="0 0 16 17" fill="none" xmlns="http://www.w3.org/2000/svg">
<path d="M15.964 1.18605C16.0004 1.09519 16.0093 0.995646 15.9896 0.89977C15.97 0.803893 15.9226 0.715897 15.8534 0.646691C15.7842 0.577484 15.6962 0.530111 15.6003 0.510443C15.5044 0.490776 15.4049 0.49968 15.314 0.53605L0.767017 6.35505H0.766017L0.314017 6.53505C0.228408 6.5692 0.153903 6.62635 0.098733 6.70018C0.0435631 6.77401 0.00987534 6.86166 0.0013908 6.95344C-0.00709374 7.04522 0.00995519 7.13755 0.0506543 7.22025C0.0913535 7.30295 0.154119 7.37279 0.232017 7.42205L0.642017 7.68205L0.643017 7.68405L5.63802 10.8621L8.81602 15.8571L8.81802 15.8591L9.07802 16.2691C9.12744 16.3466 9.19732 16.4091 9.27995 16.4495C9.36259 16.49 9.45478 16.5068 9.54638 16.4983C9.63798 16.4897 9.72543 16.456 9.79912 16.4009C9.87281 16.3458 9.92987 16.2715 9.96402 16.1861L15.964 1.18605ZM14.131 3.07605L6.63702 10.5701L6.42202 10.2321C6.38262 10.17 6.33004 10.1174 6.26802 10.0781L5.93002 9.86305L13.424 2.36905L14.602 1.89805L14.131 3.07605Z" fill="white"/>
</svg>
