<svg width="19" height="21" viewBox="0 0 19 21" fill="none" xmlns="http://www.w3.org/2000/svg">
<path d="M6.625 4.03133C6.22805 4.03133 5.90625 4.35313 5.90625 4.75008C5.90625 5.14704 6.22805 5.46883 6.625 5.46883H12.375C12.772 5.46883 13.0938 5.14704 13.0938 4.75008C13.0938 4.35313 12.772 4.03133 12.375 4.03133H6.625Z" fill="#333333"/>
<path fill-rule="evenodd" clip-rule="evenodd" d="M9.4449 0.197998C7.45869 0.197984 5.89394 0.197973 4.67123 0.364144C3.41575 0.534768 2.41417 0.892487 1.62714 1.68805C0.841165 2.48254 0.488714 3.49181 0.320413 4.75718C0.156227 5.99161 0.156237 7.57201 0.15625 9.58111V14.4666C0.15624 15.9114 0.156232 17.0553 0.248259 17.9164C0.339206 18.7675 0.534287 19.5353 1.09143 20.0487C1.53841 20.4607 2.10369 20.7204 2.707 20.7894C3.46166 20.8757 4.16629 20.5154 4.8604 20.0237C5.56281 19.5262 6.41489 18.7725 7.48993 17.8217L7.52492 17.7907C8.02332 17.3499 8.36075 17.0524 8.64228 16.8465C8.91438 16.6476 9.08051 16.5757 9.22053 16.5475C9.40505 16.5103 9.59495 16.5103 9.77947 16.5475C9.91949 16.5757 10.0856 16.6476 10.3577 16.8465C10.6392 17.0524 10.9767 17.3499 11.4751 17.7907L11.5101 17.8217C12.5851 18.7725 13.4372 19.5262 14.1396 20.0237C14.8337 20.5154 15.5383 20.8757 16.293 20.7894C16.8963 20.7204 17.4616 20.4607 17.9086 20.0487C18.4657 19.5353 18.6608 18.7675 18.7517 17.9164C18.8438 17.0553 18.8438 15.9114 18.8438 14.4667V9.58108C18.8438 7.57201 18.8438 5.9916 18.6796 4.75718C18.5113 3.49181 18.1588 2.48254 17.3729 1.68805C16.5858 0.892487 15.5843 0.534768 14.3288 0.364144C13.1061 0.197973 11.5413 0.197984 9.5551 0.197998H9.4449ZM2.64907 2.69902C3.12513 2.2178 3.77158 1.93712 4.86481 1.78855C5.97951 1.63706 7.44654 1.6355 9.5 1.6355C11.5535 1.6355 13.0205 1.63706 14.1352 1.78855C15.2284 1.93712 15.8749 2.2178 16.3509 2.69902C16.8281 3.18132 17.1072 3.83793 17.2546 4.94671C17.4048 6.07538 17.4062 7.56014 17.4062 9.6352V14.4205C17.4062 15.9216 17.4053 16.9882 17.3224 17.7637C17.2374 18.5585 17.0808 18.8568 16.9344 18.9917C16.7103 19.1982 16.4286 19.327 16.1296 19.3612C15.9383 19.3831 15.6176 19.309 14.9705 18.8507C14.3393 18.4036 13.5452 17.7026 12.4274 16.714L12.4024 16.6918C11.9354 16.2787 11.5481 15.9362 11.2062 15.6862C10.8488 15.4248 10.4883 15.2239 10.0633 15.1383C9.69145 15.0633 9.30855 15.0633 8.93667 15.1383C8.51173 15.2239 8.15123 15.4248 7.79378 15.6862C7.45188 15.9362 7.0646 16.2787 6.59764 16.6918L6.57255 16.714C5.45475 17.7026 4.66067 18.4036 4.0295 18.8507C3.38244 19.309 3.06174 19.3831 2.87042 19.3612C2.57143 19.327 2.28967 19.1982 2.06561 18.9917C1.91923 18.8568 1.76255 18.5585 1.67762 17.7637C1.59475 16.9882 1.59375 15.9216 1.59375 14.4205V9.6352C1.59375 7.56014 1.59524 6.07538 1.74536 4.94671C1.89284 3.83793 2.17194 3.18132 2.64907 2.69902Z" fill="#333333"/>
</svg>
